<svg xmlns="http://www.w3.org/2000/svg" viewBox="0 0 512 512">
  <defs>
    <linearGradient id="bg" x1="0" x2="1" y1="0" y2="1">
      <stop offset="0%" stop-color="#8f6c3b"/>
      <stop offset="100%" stop-color="#402112"/>
    </linearGradient>
  </defs>
  <rect width="512" height="512" rx="56" fill="url(#bg)"/>
  <circle cx="256" cy="188" r="102" fill="#ddb27b"/>
  <path d="M155 423c20-72 73-112 101-112s83 40 102 112" fill="#6a3925"/>
  <path d="M147 178c31-69 80-101 108-101s77 32 109 101" fill="#4b2316"/>
  <path d="M196 224c17 15 37 22 60 22s43-7 60-22" stroke="#3b1e15" stroke-width="14" fill="none" stroke-linecap="round"/>
  <path d="M203 143c14-12 31-18 53-18s39 6 53 18" stroke="#3b1e15" stroke-width="12" fill="none" stroke-linecap="round"/>
  <circle cx="220" cy="194" r="11" fill="#24130d"/>
  <circle cx="292" cy="194" r="11" fill="#24130d"/>
  <path d="M111 99l85 25-51 64" fill="#c9a469"/>
  <rect x="323" y="92" width="26" height="162" rx="10" fill="#c9a469" transform="rotate(22 336 172)"/>
  <path d="M326 70l58 20-32 59" fill="#dfc087"/>
  <text x="256" y="476" text-anchor="middle" font-family="Georgia, serif" font-size="38" fill="#f7ead0">ALDEN</text>
</svg>
